<svg width="179" height="32" viewBox="0 0 179 32" fill="none" xmlns="http://www.w3.org/2000/svg">
<g clip-path="url(#clip0_9636_21320)">
<path d="M130.192 26.3704H133.275V13.0371H130.184V26.3704H130.192ZM124.76 22.5687C124.774 23.0163 124.426 23.3952 123.971 23.4281H122.142C121.674 23.4113 121.306 23.0289 121.314 22.5687V17.1951H118.247V22.8319C118.247 25.1548 119.667 26.355 121.748 26.355H124.768C126.692 26.355 127.858 24.907 127.858 22.8319V17.1951H124.744C124.744 17.1951 124.76 22.3983 124.76 22.5687ZM142.105 17.1951V22.5687C142.115 23.0148 141.77 23.3914 141.317 23.4281H139.535C139.082 23.3914 138.737 23.0148 138.747 22.5687V17.1951H135.593V22.8319C135.593 25.1548 137.012 26.355 139.101 26.355H142.113C144.037 26.355 145.204 24.907 145.204 22.8319V17.1951H142.105ZM112.5 17.1951H110.552C110.195 17.1766 109.839 17.2402 109.512 17.3809V13.0371H106.421V26.355H109.496V20.9968C109.486 20.5507 109.831 20.1741 110.284 20.1374H112.113C112.566 20.1741 112.912 20.5507 112.902 20.9968V26.3704H115.993V20.5632C115.993 18.132 114.416 17.1951 112.492 17.1951H112.5Z" fill="#1CE682"/>
<path d="M43.1064 12.5028C41.3452 12.0006 38.5294 11.3323 35.4462 12.1594C34.875 12.3145 34.4832 12.5692 34.2122 13.053C34.0768 13.293 33.9523 13.5551 34.0182 13.821C34.0768 14.0462 34.399 14.1275 34.6553 14.1681C34.9043 14.2087 35.4645 14.2382 35.6147 14.0536C35.6952 13.9576 35.6952 13.6918 35.2851 13.6031C35.135 13.5699 34.7212 13.5551 34.6883 13.485C34.6883 13.485 34.7029 13.437 34.9299 13.3668C35.0288 13.3373 35.7648 13.0308 37.7714 13.0973C40.1588 13.1748 42.2459 13.7398 44.4503 14.6149C46.607 15.4715 49.0347 17.0223 50.4554 18.8649C50.9937 19.5627 51.6601 20.7111 51.748 21.6748C51.9604 24.0195 49.6901 25.9987 45.0764 25.8399C44.2892 25.8141 43.3298 25.6258 43.3298 25.6258L43.2346 21.0988C43.2346 21.0988 45.1863 21.084 47.343 21.8004C47.5261 21.8595 47.7128 21.9813 47.7275 22.1622C47.7384 22.2989 47.6323 22.4207 47.5114 22.5278C47.2881 22.7235 46.9805 22.8121 46.9109 22.8933C46.8633 22.9524 46.8633 23.0447 46.9256 23.0964C47.0867 23.222 47.4858 23.3106 47.7531 23.2847C48.2987 23.2367 48.6575 22.9192 48.9322 22.5019C49.2251 22.0588 49.3899 20.9326 47.841 20.2163C45.838 19.2895 43.2199 19.4631 43.2199 19.4631C43.2199 19.4631 43.2053 18.8501 43.1797 18.4402C43.1357 17.7682 42.949 16.4537 42.3448 16.0734C42.235 16.0032 42.0995 15.9958 42.0226 16.0992C41.9054 16.2543 41.7882 16.8451 41.7626 16.9965C41.5356 18.3664 41.5466 19.596 41.5356 19.6144C41.5283 19.6218 41.5209 19.6292 41.5136 19.6366C41.488 19.6514 40.0416 19.8249 38.6429 20.4379C38.0863 20.6816 37.288 21.121 37.0464 21.6859C36.7351 22.417 37.2844 23.2146 38.2108 24.1008C38.9944 24.8503 40.1515 25.6405 41.0083 26.0467C41.228 26.1501 41.4843 26.2793 41.4843 26.2793C41.4843 26.2793 41.5392 26.8036 41.5832 27.1064C41.7443 28.1957 42.5682 28.0369 42.7952 27.9889C43.165 27.9114 43.2346 27.664 43.2859 27.3797C43.3152 27.2246 43.3005 26.9957 43.3005 26.9957C43.3005 26.9957 43.8571 27.1249 44.2342 27.195C45.3254 27.3981 46.5081 27.4314 47.5334 27.291C51.6345 26.7261 52.6707 24.7765 52.9966 24.2559C53.5642 23.3512 54.7689 20.8293 51.1401 17.0888C50.3126 16.2322 47.9142 13.8801 43.1028 12.5065L43.1064 12.5028ZM37.6872 22.7013C37.537 22.5462 37.4235 22.3801 37.4565 22.177C37.4894 21.9813 37.8703 21.8078 38.0607 21.7524C39.9098 21.2022 41.4807 21.1727 41.4807 21.1727C41.4807 21.1727 41.466 21.841 41.4623 22.5204C41.455 23.8017 41.4916 25.1051 41.4916 25.1051C41.4916 25.1051 39.4045 24.4922 37.6872 22.7013Z" fill="white"/>
<path d="M56.4862 17.9898C57.354 17.6464 58.0241 17.1553 58.7015 16.4537C59.0969 16.0475 59.4448 15.3792 59.3166 14.7699C59.2544 14.4672 59.1152 14.2604 58.8662 14.0425C58.7417 13.9355 58.4561 13.7804 58.2218 13.7361C58.1559 13.7213 58.0826 13.7176 58.0533 13.6991C58.0204 13.677 57.9948 13.6327 57.9618 13.5921C57.808 13.3964 57.5078 13.2117 57.2917 13.1379C56.6253 12.9053 55.7392 13.0825 55.1313 13.3373C54.4905 13.6105 53.901 14.013 53.4506 14.4967C52.2716 15.7706 52.7915 16.7786 52.8941 16.967C52.9819 17.1257 53.1504 17.2993 53.1833 17.4654C53.2053 17.5651 53.1833 17.6944 53.1907 17.8125C53.198 18.0821 53.3151 18.3553 53.5129 18.5363C53.6557 18.6618 53.8607 18.7024 54.0695 18.3849C54.139 18.2778 54.2525 18.0636 54.2525 18.0636C54.2525 18.0636 54.4942 18.2039 55.0727 18.2445C55.5048 18.2741 56.098 18.1448 56.4788 17.9935L56.4862 17.9898ZM53.7069 16.45C53.7069 16.45 53.6667 16.3651 53.641 16.3023C53.4616 15.8555 53.8571 15.3497 54.2159 15.0395C54.9153 14.4376 55.5121 14.4524 55.5121 14.4524C55.5121 14.4524 55.3693 14.5669 55.2522 14.6739C54.2306 15.5749 53.7069 16.4537 53.7069 16.4537V16.45ZM55.2412 16.4352C55.6696 15.8777 56.4642 15.1872 57.0171 14.8549C57.4492 14.5927 57.8227 14.5226 58.1046 14.6481C58.2694 14.7219 58.4049 14.8733 58.4268 15.0764C58.5001 15.7041 57.7824 16.2285 57.3027 16.5128C56.2115 17.1553 54.919 17.0113 54.886 16.9522C54.8823 16.9374 55.146 16.5719 55.2448 16.4389L55.2412 16.4352Z" fill="white"/>
<path d="M81.2464 19.847C79.8549 18.8722 77.614 21.9591 76.6253 23.4878C76.4789 22.7087 77.0025 21.7228 77.0025 21.7228C77.0025 21.7228 77.841 20.2606 77.9582 19.9615C78.0717 19.6624 78.1376 19.0495 77.9948 18.9867C77.863 18.9276 77.6396 19.1233 77.6396 19.1233C75.7575 20.8255 75.4939 22.7161 75.4939 22.7161C75.3145 23.7352 75.5232 24.4478 75.8308 24.9463C74.7835 27.195 74.2746 29.152 74.41 30.3114C74.5382 31.1939 75.1643 31.8327 75.5452 31.9657C75.9296 32.1281 75.9992 31.6629 75.9992 31.6629C76.3104 29.2665 76.8524 27.664 77.5005 26.0799C79.4631 26.5341 80.9388 24.6103 81.4587 23.6909C81.7663 23.137 81.9311 22.4022 81.9311 21.708C81.9311 20.9179 81.7151 20.1867 81.25 19.847H81.2464ZM79.9685 23.6687C79.7451 23.8829 78.9981 24.3075 78.2255 24.3961C78.9615 22.9561 79.8769 21.8964 80.3822 21.3314C80.9718 20.6631 81.0486 21.2686 81.0486 21.2686C81.1878 22.4502 80.3346 23.3401 79.9648 23.6687H79.9685Z" fill="white"/>
<path d="M74.8055 24.8058C74.9007 24.4439 74.5748 24.0525 74.2818 23.9787C74.0072 23.9233 71.9018 24.3184 71.6528 24.3885C71.3818 24.4624 71.5026 24.2039 71.5026 24.2039L71.8285 23.0962C71.8285 23.0962 73.8388 23.0186 74.1281 22.9706C74.399 22.9226 74.4137 22.7306 74.4137 22.7306C74.4137 22.7306 74.4503 22.4131 74.4393 22.1177C74.41 21.8001 74.1573 21.8297 74.1573 21.8297C73.3811 21.7484 72.3119 21.8408 72.3119 21.8408L72.5828 20.9878C72.5828 20.9878 74.7212 20.8844 75.5305 20.6924C75.9479 20.5927 75.7026 20.1792 75.7026 20.1792C75.1973 19.1563 74.6114 19.2154 74.6114 19.2154C72.9307 19.16 70.4884 19.6068 70.2211 19.7397C69.9721 19.8542 69.9977 20.0425 70.3236 20.4561C70.6714 20.8918 71.2573 20.8512 71.2573 20.8512L70.741 21.9257C70.3199 21.9552 70.1771 22.0881 70.1771 22.0881C69.9354 22.3503 70.2686 23.1183 70.2686 23.1183C70.2686 23.1183 69.54 24.7689 70.0673 25.6403C70.6348 26.556 71.3086 26.5117 71.3086 26.5117C72.5865 26.604 74.6883 25.2563 74.8018 24.8095L74.8055 24.8058Z" fill="white"/>
<path d="M67.4602 18.2482C67.4602 18.2482 67.1636 18.1079 67.0867 18.407C67.0098 18.7024 67.1233 19.0199 67.1233 19.0199C67.863 21.553 68.0314 23.0521 68.0314 23.0521C68.0314 23.0521 68.0644 23.4915 67.9801 23.5173C67.9215 23.5616 67.8556 23.4989 67.8556 23.4989C67.7714 23.4989 66.9585 22.129 66.9585 22.129L66.8011 21.8594C65.9076 20.4046 65.3657 19.9098 65.3657 19.9098C65.2375 19.7917 64.9153 19.4593 64.5089 19.9135C64.1024 20.3714 63.7875 21.8373 63.6594 23.2146C63.5495 24.5918 63.6337 25.3746 63.8315 25.7033C64.0512 26.0393 64.4723 26.1501 64.8201 25.8657C65.1899 25.5814 65.1204 23.7647 65.179 22.8342C65.2339 21.9 65.3254 22.0662 65.3254 22.0662C65.406 22.0441 65.8271 22.9007 65.8271 22.9007C65.8271 22.9007 66.9366 25.1937 67.6359 25.5334C68.3426 25.8731 68.9102 25.3266 69.1262 24.8171C69.3459 24.3038 69.7158 22.6016 69.1629 20.7148C68.6063 18.8279 67.4565 18.2482 67.4565 18.2482H67.4602Z" fill="white"/>
<path d="M55.915 23.104C55.8857 22.4762 55.8124 20.8737 55.6404 20.15C55.5635 19.8398 55.439 19.5555 55.135 19.4374C55.0984 19.4226 55.0581 19.4115 55.0325 19.4078C54.8421 19.3709 54.7323 19.6331 54.681 19.766C54.5309 20.1537 54.421 21.0842 54.3917 21.3722C54.3038 22.251 54.2306 24.3299 54.3807 25.3896C54.443 25.8327 54.5895 26.1207 55.0325 26.2167C55.2119 26.2536 55.5415 26.2462 55.688 26.1539C55.8125 26.0764 55.904 25.9213 55.9333 25.7884C56.0138 25.4191 55.9845 24.8948 55.9662 24.4997C55.9479 24.0345 55.9333 23.5729 55.915 23.1003V23.104Z" fill="white"/>
<path d="M63.1027 19.5995C62.1434 19.0862 60.5615 19.0825 59.5839 19.2081C58.5733 19.3336 57.2221 19.6511 56.6436 20.4893C56.4239 20.8106 56.2957 21.298 56.3946 21.7005C56.4532 21.922 56.6106 22.0919 56.8413 22.2137C57.2514 22.4279 58.6172 22.4759 59.225 22.5423C59.7999 22.6051 60.8545 22.7085 61.4367 22.9522C61.4367 22.9522 61.9896 23.1442 61.9859 23.4618C61.9859 23.6168 61.8688 23.7424 61.7516 23.8273C60.8874 24.4439 59.7011 24.6212 58.6428 24.6027C58.284 24.599 57.9911 24.5399 57.6249 24.3849C57.4711 24.3147 57.2697 24.1929 57.2953 23.9787C57.3393 23.639 57.7237 23.5541 58.0313 23.5836C58.2034 23.5984 58.4268 23.6722 58.5952 23.7387C59.2726 24.0082 59.5802 24.2372 60.1771 24.1449C60.4004 24.1116 61.1694 23.9418 61.2756 23.6205C61.3012 23.543 61.2646 23.4581 61.206 23.399C61.1254 23.3141 60.6604 23.1331 60.5359 23.0888C60.0819 22.9263 59.2214 22.7787 58.7417 22.7602C58.1155 22.738 57.2514 22.8673 56.8926 23.3916C56.5703 23.8642 56.4971 24.8169 58.0972 25.6181C58.8406 25.9911 59.7413 26.1572 60.5725 26.0649C61.0485 26.0095 62.4143 25.7954 62.9343 24.6987C63.2126 24.1079 63.187 23.3214 62.8867 22.7602C62.689 22.3909 62.451 21.8998 60.6641 21.6746C60.3785 21.6377 58.2767 21.394 58.0863 21.3644C57.9801 21.346 57.4857 21.2869 57.6615 21.0986C57.7091 21.0432 57.8592 21.0026 57.9471 20.9804C59.0493 20.6776 60.448 20.7109 61.6088 20.6444C61.8688 20.6296 62.4546 20.5927 62.7402 20.5004C63.0112 20.4155 63.2346 20.2235 63.2968 19.9207C63.3298 19.7619 63.2529 19.6844 63.1027 19.6068V19.5995Z" fill="white"/>
<path d="M91.748 20.9694H88.4488C88.4122 19.821 88.2987 18.6838 88.1046 17.5686C88.0717 17.3766 87.9069 17.2363 87.7128 17.2363H86.8231C86.651 17.2363 86.5191 17.3951 86.5484 17.5686C86.7572 18.6838 86.878 19.8174 86.9183 20.9694H83.5642C83.4104 20.9694 83.2859 21.0949 83.2859 21.25V22.2691C83.2859 22.4242 83.4104 22.5498 83.5642 22.5498H86.9183C86.878 23.7018 86.7572 24.8354 86.5484 25.9505C86.5155 26.1241 86.6473 26.2828 86.8231 26.2828H87.7128C87.9069 26.2828 88.0717 26.1425 88.1046 25.9505C88.2987 24.8354 88.4122 23.6981 88.4488 22.5461H91.748C91.9018 22.5461 92.0263 22.4205 92.0263 22.2654V21.2463C92.0263 21.0912 91.9018 20.9657 91.748 20.9657V20.9694Z" fill="white"/>
<path d="M46.3104 8.6219C46.4422 8.71422 46.6253 8.64406 46.7571 8.50375C47.8886 7.27416 49.1262 6.20335 50.536 5.23223C59.789 -1.14094 73.3738 -0.214132 81.3196 7.86126C83.9304 10.5014 85.3658 13.3335 86.1201 15.56C86.175 15.7225 86.3251 15.8333 86.4972 15.8333H87.409C87.5994 15.8333 87.7349 15.6449 87.6726 15.464C86.684 12.5101 84.7689 9.26808 81.986 6.63167C73.6448 -1.29233 60.1296 -2.17482 50.7117 4.30543C49.1702 5.35408 47.6396 6.69814 46.2958 8.2342C46.1639 8.38559 46.2079 8.55175 46.3104 8.6219Z" fill="white"/>
</g>
<defs>
<clipPath id="clip0_9636_21320">
<rect width="179" height="32" fill="white"/>
</clipPath>
</defs>
</svg>
