<svg width="179" height="32" viewBox="0 0 179 32" fill="none" xmlns="http://www.w3.org/2000/svg">
<g clip-path="url(#clip0_9636_21319)">
<path d="M96.1922 26.3704H99.275V13.0371H96.1843V26.3704H96.1922ZM90.7599 22.5687C90.7738 23.0163 90.4262 23.3952 89.9715 23.4281H88.1423C87.6739 23.4113 87.3056 23.0289 87.3145 22.5687V17.1951H84.2475V22.8319C84.2475 25.1548 85.6667 26.355 87.7481 26.355H90.7678C92.6916 26.355 93.8584 24.907 93.8584 22.8319V17.1951H90.7441C90.7441 17.1951 90.7599 22.3983 90.7599 22.5687ZM108.105 17.1951V22.5687C108.115 23.0148 107.77 23.3914 107.317 23.4281H105.535C105.082 23.3914 104.737 23.0148 104.747 22.5687V17.1951H101.593V22.8319C101.593 25.1548 103.012 26.355 105.101 26.355H108.113C110.037 26.355 111.204 24.907 111.204 22.8319V17.1951H108.105ZM78.4998 17.1951H76.5524C76.1955 17.1766 75.8391 17.2402 75.5117 17.3809V13.0371H72.421V26.355H75.4959V20.9968C75.486 20.5507 75.8315 20.1741 76.2843 20.1374H78.1135C78.5663 20.1741 78.9118 20.5507 78.9019 20.9968V26.3704H81.9926V20.5632C81.9926 18.132 80.4157 17.1951 78.4919 17.1951H78.4998Z" fill="#1CE682"/>
<path fillRule="evenodd" clipRule="evenodd" d="M157.604 19.5423C157.604 19.5423 157.559 19.9612 157.492 20.4266C157.35 21.4457 156.445 22.1553 155.465 22.0169H151.105L150.613 26.0741H147.14L147.915 19.5423H157.604ZM137.116 19.5423H144.748C145.836 19.5423 147.222 20.031 146.946 22.079C146.873 22.919 146.736 23.7517 146.537 24.5692C145.955 26.0121 144.226 26.0586 143.98 26.0741H136.297L136.639 23.2426H143.399L143.548 22.0169H138.845C137.668 22.0169 136.833 21.2489 137.087 19.5423H137.116ZM136.416 19.5423L136.118 22.0169H130.297L130.148 23.2426H135.969L135.618 26.0741H126.303L127.1 19.5423H136.416ZM158.312 19.5423H161.785L160.995 26.0741H157.514L158.312 19.5423ZM164.907 19.5423H168.38L167.59 26.0741H164.087L164.877 19.5423H164.907ZM127.644 15.4075H136.938L136.572 18.4019H127.234L127.599 15.4075H127.644ZM155.517 15.4075C157.455 15.4075 157.976 16.5633 157.82 17.8433C157.82 18.0683 157.76 18.3321 157.753 18.3941H137.228C137.228 18.3941 137.28 17.983 137.333 17.5175C137.474 16.2918 138.45 15.4618 139.933 15.4075H155.472H155.517ZM166.398 15.4075C167.598 15.4075 168.842 15.9815 168.596 17.9442C168.552 18.2933 168.544 18.4019 168.544 18.4019H158.416L158.781 15.4075H166.398Z" fill="white"/>
<path fillRule="evenodd" clipRule="evenodd" d="M176.384 19.395L176.712 16.7341H173.947L173.627 19.395H171.018L170.705 22.0403H173.299L172.986 24.7167H175.743L176.079 22.0093H178.68L179 19.3639L176.384 19.395Z" fill="#F9B300"/>
<path d="M9.10644 12.5028C7.34518 12.0006 4.52935 11.3323 1.44623 12.1594C0.875006 12.3145 0.48321 12.5692 0.212246 13.053C0.0767646 13.293 -0.0477317 13.5551 0.0181784 13.821C0.0767651 14.0462 0.398991 14.1275 0.655308 14.1681C0.904301 14.2087 1.46453 14.2382 1.61466 14.0536C1.69522 13.9576 1.69522 13.6918 1.28512 13.6031C1.13499 13.5699 0.721217 13.5551 0.688262 13.485C0.688262 13.485 0.70291 13.437 0.929933 13.3668C1.0288 13.3373 1.76479 13.0308 3.77139 13.0973C6.1588 13.1748 8.24595 13.7398 10.4503 14.6149C12.607 15.4715 15.0347 17.0223 16.4554 18.8649C16.9937 19.5627 17.6601 20.7111 17.748 21.6748C17.9604 24.0195 15.6901 25.9987 11.0764 25.8399C10.2892 25.8141 9.3298 25.6258 9.3298 25.6258L9.23459 21.0988C9.23459 21.0988 11.1863 21.084 13.343 21.8004C13.5261 21.8595 13.7128 21.9813 13.7275 22.1622C13.7384 22.2989 13.6323 22.4207 13.5114 22.5278C13.2881 22.7235 12.9805 22.8121 12.9109 22.8933C12.8633 22.9524 12.8633 23.0447 12.9256 23.0964C13.0867 23.222 13.4858 23.3106 13.7531 23.2847C14.2987 23.2367 14.6575 22.9192 14.9322 22.5019C15.2251 22.0588 15.3899 20.9326 13.841 20.2163C11.838 19.2895 9.21995 19.4631 9.21995 19.4631C9.21995 19.4631 9.2053 18.8501 9.17967 18.4402C9.13573 17.7682 8.94899 16.4537 8.34481 16.0734C8.23496 16.0032 8.09948 15.9958 8.02258 16.0992C7.90541 16.2543 7.78824 16.8451 7.76261 16.9965C7.53558 18.3664 7.54657 19.596 7.53558 19.6144C7.52826 19.6218 7.52093 19.6292 7.51361 19.6366C7.48798 19.6514 6.04162 19.8249 4.64286 20.4379C4.08629 20.6816 3.28805 21.121 3.04638 21.6859C2.73514 22.417 3.28439 23.2146 4.21079 24.1008C4.99438 24.8503 6.15147 25.6405 7.0083 26.0467C7.228 26.1501 7.48432 26.2793 7.48432 26.2793C7.48432 26.2793 7.53924 26.8036 7.58318 27.1064C7.7443 28.1957 8.56817 28.0369 8.79519 27.9889C9.16502 27.9114 9.23459 27.664 9.28586 27.3797C9.31515 27.2246 9.30051 26.9957 9.30051 26.9957C9.30051 26.9957 9.85708 27.1249 10.2342 27.195C11.3254 27.3981 12.5081 27.4314 13.5334 27.291C17.6345 26.7261 18.6707 24.7765 18.9966 24.2559C19.5642 23.3512 20.7689 20.8293 17.1401 17.0888C16.3126 16.2322 13.9142 13.8801 9.10277 12.5065L9.10644 12.5028ZM3.68717 22.7013C3.53704 22.5462 3.42353 22.3801 3.45648 22.177C3.48944 21.9813 3.87025 21.8078 4.06066 21.7524C5.9098 21.2022 7.48066 21.1727 7.48066 21.1727C7.48066 21.1727 7.46601 21.841 7.46235 22.5204C7.45502 23.8017 7.49164 25.1051 7.49164 25.1051C7.49164 25.1051 5.40449 24.4922 3.68717 22.7013Z" fill="white"/>
<path d="M22.4862 17.9898C23.354 17.6464 24.0241 17.1553 24.7015 16.4537C25.0969 16.0475 25.4448 15.3792 25.3166 14.7699C25.2544 14.4672 25.1152 14.2604 24.8662 14.0425C24.7417 13.9355 24.4561 13.7804 24.2218 13.7361C24.1559 13.7213 24.0826 13.7176 24.0533 13.6991C24.0204 13.677 23.9948 13.6327 23.9618 13.5921C23.808 13.3964 23.5078 13.2117 23.2917 13.1379C22.6253 12.9053 21.7392 13.0825 21.1313 13.3373C20.4905 13.6105 19.901 14.013 19.4506 14.4967C18.2716 15.7706 18.7915 16.7786 18.8941 16.967C18.9819 17.1257 19.1504 17.2993 19.1833 17.4654C19.2053 17.5651 19.1833 17.6944 19.1907 17.8125C19.198 18.0821 19.3151 18.3553 19.5129 18.5363C19.6557 18.6618 19.8607 18.7024 20.0695 18.3849C20.139 18.2778 20.2525 18.0636 20.2525 18.0636C20.2525 18.0636 20.4942 18.2039 21.0727 18.2445C21.5048 18.2741 22.098 18.1448 22.4788 17.9935L22.4862 17.9898ZM19.7069 16.45C19.7069 16.45 19.6667 16.3651 19.641 16.3023C19.4616 15.8555 19.8571 15.3497 20.2159 15.0395C20.9153 14.4376 21.5121 14.4524 21.5121 14.4524C21.5121 14.4524 21.3693 14.5669 21.2522 14.6739C20.2306 15.5749 19.7069 16.4537 19.7069 16.4537V16.45ZM21.2412 16.4352C21.6696 15.8777 22.4642 15.1872 23.0171 14.8549C23.4492 14.5927 23.8227 14.5226 24.1046 14.6481C24.2694 14.7219 24.4049 14.8733 24.4268 15.0764C24.5001 15.7041 23.7824 16.2285 23.3027 16.5128C22.2115 17.1553 20.919 17.0113 20.886 16.9522C20.8823 16.9374 21.146 16.5719 21.2448 16.4389L21.2412 16.4352Z" fill="white"/>
<path d="M47.2465 19.847C45.8551 18.8722 43.6141 21.9591 42.6255 23.4878C42.479 22.7087 43.0026 21.7228 43.0026 21.7228C43.0026 21.7228 43.8411 20.2606 43.9583 19.9615C44.0718 19.6624 44.1377 19.0495 43.9949 18.9867C43.8631 18.9276 43.6398 19.1233 43.6398 19.1233C41.7577 20.8255 41.494 22.7161 41.494 22.7161C41.3146 23.7352 41.5233 24.4478 41.8309 24.9463C40.7837 27.195 40.2747 29.152 40.4102 30.3114C40.5383 31.1939 41.1645 31.8327 41.5453 31.9657C41.9298 32.1281 41.9993 31.6629 41.9993 31.6629C42.3106 29.2665 42.8525 27.664 43.5006 26.0799C45.4633 26.5341 46.9389 24.6103 47.4589 23.6909C47.7665 23.137 47.9312 22.4022 47.9312 21.708C47.9312 20.9179 47.7152 20.1867 47.2502 19.847H47.2465ZM45.9686 23.6687C45.7452 23.8829 44.9982 24.3075 44.2256 24.3961C44.9616 22.9561 45.877 21.8964 46.3823 21.3314C46.9719 20.6631 47.0488 21.2686 47.0488 21.2686C47.1879 22.4502 46.3347 23.3401 45.9649 23.6687H45.9686Z" fill="white"/>
<path d="M40.8055 24.8058C40.9007 24.4439 40.5748 24.0525 40.2818 23.9787C40.0072 23.9233 37.9018 24.3184 37.6528 24.3885C37.3818 24.4624 37.5026 24.2039 37.5026 24.2039L37.8285 23.0962C37.8285 23.0962 39.8388 23.0186 40.1281 22.9706C40.399 22.9226 40.4137 22.7306 40.4137 22.7306C40.4137 22.7306 40.4503 22.4131 40.4393 22.1177C40.41 21.8001 40.1573 21.8297 40.1573 21.8297C39.3811 21.7484 38.3119 21.8408 38.3119 21.8408L38.5828 20.9878C38.5828 20.9878 40.7212 20.8844 41.5305 20.6924C41.9479 20.5927 41.7026 20.1792 41.7026 20.1792C41.1973 19.1563 40.6114 19.2154 40.6114 19.2154C38.9307 19.16 36.4884 19.6068 36.2211 19.7397C35.9721 19.8542 35.9977 20.0425 36.3236 20.4561C36.6714 20.8918 37.2573 20.8512 37.2573 20.8512L36.741 21.9257C36.3199 21.9552 36.1771 22.0881 36.1771 22.0881C35.9354 22.3503 36.2686 23.1183 36.2686 23.1183C36.2686 23.1183 35.54 24.7689 36.0673 25.6403C36.6348 26.556 37.3086 26.5117 37.3086 26.5117C38.5865 26.604 40.6883 25.2563 40.8018 24.8095L40.8055 24.8058Z" fill="white"/>
<path d="M33.4601 18.2482C33.4601 18.2482 33.1635 18.1079 33.0866 18.407C33.0097 18.7024 33.1232 19.0199 33.1232 19.0199C33.8628 21.553 34.0313 23.0521 34.0313 23.0521C34.0313 23.0521 34.0642 23.4915 33.98 23.5173C33.9214 23.5616 33.8555 23.4989 33.8555 23.4989C33.7713 23.4989 32.9584 22.129 32.9584 22.129L32.801 21.8594C31.9075 20.4046 31.3656 19.9098 31.3656 19.9098C31.2374 19.7917 30.9152 19.4593 30.5087 19.9135C30.1023 20.3714 29.7874 21.8373 29.6592 23.2146C29.5494 24.5918 29.6336 25.3746 29.8313 25.7033C30.051 26.0393 30.4721 26.1501 30.82 25.8657C31.1898 25.5814 31.1202 23.7647 31.1788 22.8342C31.2338 21.9 31.3253 22.0662 31.3253 22.0662C31.4059 22.0441 31.827 22.9007 31.827 22.9007C31.827 22.9007 32.9364 25.1937 33.6358 25.5334C34.3425 25.8731 34.9101 25.3266 35.1261 24.8171C35.3458 24.3038 35.7156 22.6016 35.1627 20.7148C34.6062 18.8279 33.4564 18.2482 33.4564 18.2482H33.4601Z" fill="white"/>
<path d="M21.9149 23.104C21.8856 22.4762 21.8123 20.8737 21.6402 20.15C21.5633 19.8398 21.4388 19.5555 21.1349 19.4374C21.0983 19.4226 21.058 19.4115 21.0324 19.4078C20.842 19.3709 20.7321 19.6331 20.6809 19.766C20.5307 20.1537 20.4209 21.0842 20.3916 21.3722C20.3037 22.251 20.2305 24.3299 20.3806 25.3896C20.4429 25.8327 20.5893 26.1207 21.0324 26.2167C21.2118 26.2536 21.5414 26.2462 21.6878 26.1539C21.8123 26.0764 21.9039 25.9213 21.9332 25.7884C22.0137 25.4191 21.9844 24.8948 21.9661 24.4997C21.9478 24.0345 21.9332 23.5729 21.9149 23.1003V23.104Z" fill="white"/>
<path d="M29.1029 19.5995C28.1435 19.0862 26.5617 19.0825 25.584 19.2081C24.5734 19.3336 23.2222 19.6511 22.6437 20.4893C22.424 20.8106 22.2958 21.298 22.3947 21.7005C22.4533 21.922 22.6107 22.0919 22.8414 22.2137C23.2515 22.4279 24.6173 22.4759 25.2252 22.5423C25.8 22.6051 26.8546 22.7085 27.4368 22.9522C27.4368 22.9522 27.9897 23.1442 27.9861 23.4618C27.9861 23.6168 27.8689 23.7424 27.7517 23.8273C26.8876 24.4439 25.7012 24.6212 24.643 24.6027C24.2841 24.599 23.9912 24.5399 23.625 24.3849C23.4712 24.3147 23.2698 24.1929 23.2955 23.9787C23.3394 23.639 23.7239 23.5541 24.0315 23.5836C24.2036 23.5984 24.4269 23.6722 24.5954 23.7387C25.2728 24.0082 25.5803 24.2372 26.1772 24.1449C26.4006 24.1116 27.1695 23.9418 27.2757 23.6205C27.3013 23.543 27.2647 23.4581 27.2061 23.399C27.1256 23.3141 26.6605 23.1331 26.536 23.0888C26.082 22.9263 25.2215 22.7787 24.7418 22.7602C24.1157 22.738 23.2515 22.8673 22.8927 23.3916C22.5704 23.8642 22.4972 24.8169 24.0974 25.6181C24.8407 25.9911 25.7415 26.1572 26.5727 26.0649C27.0487 26.0095 28.4145 25.7954 28.9344 24.6987C29.2127 24.1079 29.1871 23.3214 28.8868 22.7602C28.6891 22.3909 28.4511 21.8998 26.6642 21.6746C26.3786 21.6377 24.2768 21.394 24.0864 21.3644C23.9802 21.346 23.4859 21.2869 23.6616 21.0986C23.7092 21.0432 23.8594 21.0026 23.9472 20.9804C25.0494 20.6776 26.4482 20.7109 27.6089 20.6444C27.8689 20.6296 28.4547 20.5927 28.7404 20.5004C29.0113 20.4155 29.2347 20.2235 29.2969 19.9207C29.3299 19.7619 29.253 19.6844 29.1029 19.6068V19.5995Z" fill="white"/>
<path d="M57.748 20.9694H54.4488C54.4122 19.821 54.2987 18.6838 54.1046 17.5686C54.0717 17.3766 53.9069 17.2363 53.7128 17.2363H52.8231C52.651 17.2363 52.5191 17.3951 52.5484 17.5686C52.7572 18.6838 52.878 19.8174 52.9183 20.9694H49.5642C49.4104 20.9694 49.2859 21.0949 49.2859 21.25V22.2691C49.2859 22.4242 49.4104 22.5498 49.5642 22.5498H52.9183C52.878 23.7018 52.7572 24.8354 52.5484 25.9505C52.5155 26.1241 52.6473 26.2828 52.8231 26.2828H53.7128C53.9069 26.2828 54.0717 26.1425 54.1046 25.9505C54.2987 24.8354 54.4122 23.6981 54.4488 22.5461H57.748C57.9018 22.5461 58.0263 22.4205 58.0263 22.2654V21.2463C58.0263 21.0912 57.9018 20.9657 57.748 20.9657V20.9694Z" fill="white"/>
<path d="M12.3104 8.6219C12.4422 8.71422 12.6253 8.64406 12.7571 8.50375C13.8886 7.27416 15.1262 6.20335 16.536 5.23223C25.789 -1.14094 39.3738 -0.214132 47.3196 7.86126C49.9304 10.5014 51.3658 13.3335 52.1201 15.56C52.175 15.7225 52.3251 15.8333 52.4972 15.8333H53.409C53.5994 15.8333 53.7349 15.6449 53.6726 15.464C52.684 12.5101 50.7689 9.26808 47.986 6.63167C39.6448 -1.29233 26.1296 -2.17482 16.7117 4.30543C15.1702 5.35408 13.6396 6.69814 12.2958 8.2342C12.1639 8.38559 12.2079 8.55175 12.3104 8.6219Z" fill="white"/>
</g>
<defs>
<clipPath id="clip0_9636_21319">
<rect width="179" height="32" fill="white"/>
</clipPath>
</defs>
</svg>
