<svg width="145" height="26" viewBox="0 0 145 26" fill="none" xmlns="http://www.w3.org/2000/svg">
<g clip-path="url(#clip0_3466_1305)">
<path d="M7.46168 10.1561C6.01893 9.7477 3.71052 9.20515 1.18469 9.87775C0.715291 10.0017 0.39626 10.209 0.172735 10.6032C0.0609724 10.8003 -0.0406298 11.0116 0.0142354 11.2291C0.0630044 11.414 0.325138 11.477 0.536471 11.5115C0.739675 11.544 1.19892 11.5684 1.32287 11.4201C1.3879 11.3429 1.38993 11.1254 1.05261 11.0543C0.928655 11.0279 0.589304 11.0157 0.564919 10.9588C0.564919 10.9588 0.577112 10.9182 0.762028 10.8613C0.843309 10.8369 1.44683 10.589 3.09075 10.6418C5.04761 10.7048 6.75452 11.162 8.56304 11.8732C10.3309 12.5702 12.3183 13.828 13.4826 15.3277C13.9236 15.8946 14.4702 16.8273 14.5433 17.6117C14.7181 19.5178 12.8568 21.1251 9.07918 20.9971C8.43299 20.9747 7.64862 20.8223 7.64862 20.8223L7.56937 17.1443C7.56937 17.1443 9.16859 17.1321 10.9365 17.7133C11.0868 17.7621 11.2372 17.8617 11.2514 18.008C11.2616 18.1197 11.1722 18.2173 11.0726 18.3026C10.8897 18.4631 10.6378 18.5322 10.5829 18.5993C10.5423 18.6481 10.5423 18.7232 10.5951 18.7639C10.7292 18.8675 11.0543 18.9366 11.2738 18.9163C11.7188 18.8777 12.0155 18.6196 12.239 18.2823C12.4768 17.9226 12.6129 17.0082 11.3449 16.425C9.70302 15.6711 7.55921 15.8134 7.55921 15.8134C7.55921 15.8134 7.54905 15.3155 7.5267 14.9822C7.49013 14.4377 7.33975 13.3668 6.8419 13.0579C6.75046 13.003 6.64073 12.9949 6.57774 13.0803C6.48223 13.2062 6.38672 13.6858 6.3664 13.8098C6.17946 14.9233 6.18962 15.9231 6.17946 15.9373C6.17336 15.9434 6.16726 15.9495 6.16117 15.9556C6.14085 15.9678 4.95617 16.11 3.81009 16.6059C3.35288 16.803 2.69857 17.1606 2.50146 17.6219C2.24542 18.2152 2.6945 18.8635 3.45449 19.5828C4.09661 20.1924 5.04558 20.8325 5.74663 21.1637C5.92545 21.2491 6.13475 21.3527 6.13475 21.3527C6.13475 21.3527 6.17946 21.7774 6.21603 22.0233C6.34812 22.9093 7.02275 22.7792 7.2097 22.7426C7.51248 22.6817 7.56937 22.4805 7.61205 22.2468C7.6344 22.1188 7.62627 21.9359 7.62627 21.9359C7.62627 21.9359 8.08348 22.0416 8.39032 22.0964C9.28239 22.261 10.2517 22.2895 11.0929 22.1757C14.4539 21.7164 15.3013 20.1335 15.5695 19.7108C16.0349 18.9752 17.0224 16.9269 14.0496 13.887C13.3709 13.192 11.4079 11.2778 7.46574 10.1622L7.46168 10.1561ZM3.02369 18.4448C2.90177 18.3189 2.8083 18.1827 2.83674 18.0181C2.86316 17.8596 3.1761 17.7194 3.33256 17.6727C4.84847 17.2256 6.13475 17.2033 6.13475 17.2033C6.13475 17.2033 6.12256 17.7479 6.12053 18.2965C6.11646 19.3389 6.14288 20.3976 6.14288 20.3976C6.14288 20.3976 4.4319 19.8998 3.02572 18.4469L3.02369 18.4448ZM18.4246 14.6165C19.1358 14.3381 19.6844 13.9378 20.2392 13.3688C20.5643 13.0396 20.8488 12.495 20.7431 12.0012C20.6903 11.7554 20.5785 11.5867 20.3733 11.4079C20.2717 11.3205 20.036 11.1965 19.847 11.1579C19.7921 11.1478 19.7332 11.1437 19.7088 11.1275C19.6824 11.1092 19.66 11.0746 19.6336 11.0421C19.5097 10.8836 19.2618 10.7332 19.085 10.6723C18.5404 10.4833 17.8129 10.6255 17.3151 10.8348C16.7908 11.0563 16.3051 11.3835 15.9373 11.7777C14.9721 12.812 15.3968 13.633 15.4822 13.7854C15.5553 13.9154 15.6915 14.0536 15.7199 14.1897C15.7382 14.271 15.7199 14.3747 15.724 14.4702C15.7301 14.6876 15.8256 14.9132 15.9902 15.0574C16.108 15.1611 16.2767 15.1915 16.4453 14.9335C16.5022 14.8481 16.5957 14.6713 16.5957 14.6713C16.5957 14.6713 16.7928 14.7851 17.2683 14.8177C17.6239 14.842 18.1096 14.7364 18.4205 14.6144L18.4246 14.6165ZM16.1466 13.3647C16.1466 13.3647 16.1141 13.2957 16.0918 13.2448C15.9455 12.8811 16.2686 12.4706 16.5632 12.2187C17.1362 11.7289 17.626 11.7411 17.626 11.7411C17.626 11.7411 17.5101 11.8346 17.4126 11.92C16.5754 12.6535 16.1466 13.3647 16.1466 13.3647ZM17.4024 13.3505C17.754 12.8974 18.4042 12.3365 18.8553 12.0663C19.211 11.8549 19.5158 11.796 19.7454 11.8976C19.8815 11.9565 19.9892 12.0805 20.0075 12.2451C20.0685 12.7551 19.4792 13.1819 19.085 13.4115C18.1909 13.9337 17.1322 13.8159 17.1037 13.7691C17.0997 13.7569 17.3191 13.4582 17.3984 13.3525L17.4024 13.3505ZM38.7104 16.1243C37.5705 15.3338 35.7335 17.8393 34.9247 19.0829C34.8049 18.4489 35.2316 17.6483 35.2316 17.6483C35.2316 17.6483 35.9184 16.4595 36.016 16.2177C36.1094 15.9739 36.1643 15.476 36.0464 15.4252C35.9387 15.3765 35.7538 15.535 35.7538 15.535C34.2115 16.9188 33.9961 18.453 33.9961 18.453C33.8498 19.28 34.0205 19.8592 34.2704 20.2656C33.4129 22.0903 32.9943 23.6835 33.1061 24.6243C33.2097 25.3416 33.7238 25.8598 34.0347 25.9675C34.3497 26.0996 34.4045 25.7196 34.4045 25.7196C34.6586 23.7729 35.1056 22.4703 35.636 21.184C37.2433 21.5539 38.4524 19.9892 38.8791 19.2414C39.1311 18.7923 39.2672 18.1929 39.2652 17.63C39.2652 16.9879 39.0884 16.3925 38.7064 16.1182L38.7104 16.1243ZM37.6639 19.2292C37.479 19.404 36.8694 19.7474 36.2354 19.8185C36.8389 18.6481 37.5888 17.7885 38.0033 17.3293C38.4869 16.7847 38.5499 17.2785 38.5499 17.2785C38.6617 18.2396 37.9627 18.961 37.6639 19.2272V19.2292ZM30.5721 21.5397C30.5721 21.5397 30.0214 21.5742 29.5561 20.8325C29.1233 20.1233 29.7207 18.7842 29.7207 18.7842C29.7207 18.7842 29.4464 18.1583 29.6455 17.947C29.6455 17.947 29.7634 17.8393 30.1088 17.8149L30.5294 16.9432C30.5294 16.9432 30.0499 16.9757 29.7634 16.6221C29.4972 16.2868 29.4748 16.1324 29.68 16.0409C29.8975 15.9332 31.899 15.5675 33.2747 15.6142C33.2747 15.6142 33.7523 15.5675 34.1688 16.3965C34.1688 16.3965 34.37 16.7318 34.0286 16.8131C33.3621 16.9676 31.6125 17.0509 31.6125 17.0509L31.391 17.7418C31.391 17.7418 32.2648 17.6666 32.9029 17.7336C32.9029 17.7336 33.1081 17.7092 33.1325 17.9673C33.1406 18.2091 33.1122 18.4652 33.1122 18.4652C33.1122 18.4652 33.0979 18.6216 32.8764 18.6602C32.6367 18.7009 30.9907 18.7639 30.9907 18.7639L30.7245 19.6661C30.7245 19.6661 30.6249 19.8754 30.8464 19.8144C31.0537 19.7596 32.7769 19.4365 33.0024 19.4812C33.2442 19.5401 33.5084 19.8612 33.4332 20.1538C33.3418 20.5155 31.6206 21.6128 30.5721 21.5376V21.5397ZM28.8144 16.8334C29.2675 18.3656 28.9627 19.7474 28.7839 20.166C28.6071 20.5805 28.1418 21.0235 27.5627 20.7492C26.9916 20.4728 26.0813 18.6094 26.0813 18.6094C26.0813 18.6094 25.7358 17.9145 25.6688 17.9328C25.6688 17.9328 25.5936 17.7966 25.5489 18.5566C25.5022 19.3125 25.5591 20.7878 25.2563 21.0194C24.9698 21.2511 24.6243 21.1597 24.4455 20.8874C24.2829 20.6191 24.2138 19.9831 24.3033 18.8655C24.4069 17.7458 24.667 16.555 25.0002 16.1832C25.3315 15.8154 25.5977 16.0816 25.7033 16.1791C25.7033 16.1791 26.1463 16.5815 26.8799 17.7621L27.0099 17.9815C27.0099 17.9815 27.6744 19.0971 27.7455 19.0951C27.7455 19.0951 27.8004 19.1459 27.8492 19.1093C27.9183 19.089 27.8898 18.7314 27.8898 18.7314C27.8898 18.7314 27.7516 17.5142 27.1441 15.4557C27.1441 15.4557 27.0526 15.1997 27.1136 14.9579C27.1745 14.714 27.4184 14.8278 27.4184 14.8278C27.4184 14.8278 28.3592 15.3013 28.8164 16.8334H28.8144ZM18.0019 19.9079C18.0161 20.227 18.0405 20.6537 17.9734 20.9544C17.9491 21.0621 17.8779 21.1881 17.7743 21.2511C17.6564 21.3263 17.3862 21.3324 17.2378 21.3019C16.8721 21.2267 16.7542 20.993 16.7014 20.6313C16.5774 19.7697 16.6364 18.0811 16.7095 17.3679C16.7339 17.1321 16.8233 16.3783 16.9452 16.0613C16.9879 15.9556 17.0773 15.7402 17.2317 15.7707C17.2541 15.7747 17.2866 15.7849 17.3151 15.7951C17.565 15.8906 17.6666 16.1202 17.7276 16.3742C17.8698 16.9615 17.9308 18.264 17.9531 18.774C17.9714 19.1561 17.9795 19.532 17.9958 19.91L18.0019 19.9079ZM24.0025 16.1791C23.9517 16.423 23.7688 16.5794 23.5453 16.6485C23.3116 16.7217 22.83 16.7522 22.6187 16.7643C21.6697 16.8172 20.5237 16.7887 19.6194 17.0366C19.5483 17.057 19.4263 17.0895 19.3857 17.1342C19.2435 17.2886 19.6478 17.3354 19.7352 17.3496C19.8937 17.374 21.6149 17.5731 21.8485 17.6036C23.3116 17.7885 23.5087 18.1868 23.6693 18.4875C23.9151 18.9427 23.9375 19.5828 23.7099 20.0624C23.2852 20.9544 22.1655 21.1292 21.7754 21.1739C21.0947 21.2491 20.357 21.115 19.7474 20.8122C18.4367 20.1619 18.4957 19.3877 18.7598 19.0016C19.0525 18.5749 19.7596 18.4692 20.2737 18.4875C20.6659 18.5017 21.371 18.6237 21.7429 18.7558C21.8465 18.7923 22.2265 18.9407 22.2915 19.0098C22.3383 19.0565 22.3687 19.1256 22.3464 19.1886C22.2611 19.4487 21.6311 19.5848 21.4482 19.6133C20.9605 19.6885 20.7065 19.5035 20.1518 19.2841C20.0136 19.2292 19.8307 19.1703 19.6905 19.1581C19.4385 19.1337 19.1215 19.2028 19.087 19.4792C19.0646 19.6519 19.2292 19.7535 19.3552 19.8084C19.6539 19.9364 19.8937 19.9831 20.1884 19.9872C21.054 20.0014 22.0253 19.8592 22.7345 19.3572C22.8321 19.2881 22.9255 19.1865 22.9276 19.0585C22.9296 18.8005 22.4785 18.644 22.4785 18.644C22.0009 18.4448 21.1353 18.3615 20.6659 18.3107C20.168 18.2579 19.0484 18.2193 18.7131 18.0445C18.5241 17.947 18.3941 17.8088 18.3473 17.628C18.264 17.3028 18.3697 16.9046 18.5505 16.6445C19.024 15.9637 20.1315 15.7057 20.9585 15.6041C21.7591 15.5045 23.0556 15.5045 23.842 15.9231C23.9639 15.9881 24.0249 16.0491 24.0005 16.1791H24.0025ZM47.5417 17.2663V18.0953C47.5417 18.2213 47.4401 18.3229 47.3141 18.3229H44.6115C44.581 19.2577 44.4875 20.1802 44.329 21.0865C44.3026 21.243 44.1665 21.3568 44.01 21.3568H43.2805C43.1383 21.3568 43.0306 21.2267 43.057 21.0865C43.2277 20.1822 43.3293 19.2577 43.3598 18.3229H40.6124C40.4865 18.3229 40.3848 18.2213 40.3848 18.0953V17.2663C40.3848 17.1403 40.4865 17.0387 40.6124 17.0387H43.3598C43.3273 16.1039 43.2256 15.1814 43.057 14.2751C43.0306 14.1349 43.1383 14.0048 43.2805 14.0048H44.01C44.1665 14.0048 44.3026 14.1186 44.329 14.2731C44.4875 15.1814 44.581 16.1039 44.6115 17.0366H47.3141C47.4401 17.0366 47.5417 17.1382 47.5417 17.2642V17.2663ZM10.0871 7.00444C10.0038 6.94755 9.96719 6.81343 10.0749 6.68948C11.1763 5.4418 12.43 4.35059 13.694 3.49713C21.4096 -1.76789 32.4822 -1.05058 39.316 5.38694C41.5959 7.52871 43.1647 10.1622 43.9755 12.5621C44.0263 12.7104 43.9145 12.8628 43.7601 12.8628H43.0123C42.8721 12.8628 42.7501 12.7734 42.7054 12.6413C42.0877 10.8328 40.9111 8.53051 38.7714 6.3867C32.2587 -0.174769 21.1292 -0.926625 13.5476 4.25102C12.3914 5.03946 11.3774 5.90917 10.4508 6.90894C10.3431 7.02476 10.1927 7.07963 10.0871 7.00444Z" fill="white"/>
<path d="M95.5101 13.3749V18.2945C95.5101 20.103 94.4799 21.3507 92.7587 21.3507V21.3649H90.0642C88.1968 21.3649 86.9329 20.3062 86.9329 18.2945V13.3749H89.6842V18.0608C89.6842 18.4754 90.0134 18.8127 90.4219 18.8127H92.0231C92.4295 18.8127 92.7587 18.4774 92.7587 18.0608V13.3749H95.5101ZM82.0763 21.3649H84.848V9.77414H82.0763V21.3629V21.3649ZM77.2522 18.0608C77.2522 18.4754 76.923 18.8127 76.5166 18.8127H74.9153C74.5089 18.8127 74.1777 18.4774 74.1777 18.0608V13.3749H71.4263V18.2945C71.4263 20.3062 72.6903 21.3649 74.5577 21.3649H77.2522V21.3507C78.9733 21.3507 80.0036 20.1051 80.0036 18.2945V13.3749H77.2522V18.0608ZM66.3015 13.3912H64.5377C63.9179 13.3912 63.607 13.5598 63.607 13.5598V9.77414H60.8577V21.3629H63.607V16.6872C63.607 16.2726 63.9382 15.9394 64.3447 15.9394H65.9459C66.3543 15.9394 66.6835 16.2746 66.6835 16.6872V21.3629H69.4349V16.3234C69.4349 14.204 68.045 13.3891 66.3035 13.3891L66.3015 13.3912Z" fill="#28E688"/>
<path fillRule="evenodd" clipRule="evenodd" d="M122.144 14.6652V21.3771H119.604V15.5573C119.604 14.7872 119.281 14.4803 118.789 14.4803C118.358 14.4803 117.865 14.7567 116.757 15.6203V21.3791H114.217V15.5593C114.217 14.7892 113.894 14.4824 113.4 14.4824C112.984 14.4824 112.476 14.7587 111.368 15.6366V21.3791H108.828V12.1394H111.214V13.2936C112.476 12.3243 113.461 11.8915 114.43 11.8915C115.247 11.8915 116.156 12.2451 116.57 13.2774C117.863 12.2918 118.848 11.8915 119.819 11.8915C120.959 11.8915 122.144 12.5844 122.144 14.6632V14.6652ZM130.457 12.1394H132.875V21.3771H130.457V20.1619C129.626 21.1617 128.549 21.625 127.301 21.625C124.776 21.625 122.683 19.4548 122.683 16.7603C122.683 14.0658 124.776 11.8956 127.301 11.8956C128.549 11.8956 129.626 12.3568 130.457 13.3586V12.1415V12.1394ZM130.41 16.7583C130.41 15.2505 129.193 14.0333 127.685 14.0333C126.178 14.0333 124.961 15.2505 124.961 16.7583C124.961 18.266 126.176 19.4832 127.685 19.4832C129.195 19.4832 130.41 18.266 130.41 16.7583ZM127.685 14.649C126.531 14.649 125.592 15.5878 125.592 16.7583C125.592 17.9287 126.531 18.8675 127.685 18.8675C128.84 18.8675 129.778 17.9287 129.778 16.7583C129.778 15.5878 128.84 14.649 127.685 14.649ZM144.375 12.1394H141.341C140.587 13.3099 139.77 14.2954 138.862 15.2647C137.937 14.2954 137.122 13.3099 136.383 12.1394H133.318C134.365 13.7712 135.552 15.2342 136.937 16.6973C135.552 18.2213 134.367 19.8063 133.318 21.3771H136.383C137.106 20.2066 137.923 19.1439 138.862 18.1441C139.786 19.1459 140.554 20.2066 141.28 21.3771H144.375C143.312 19.7596 142.158 18.2213 140.772 16.6973C142.141 15.2342 143.312 13.7264 144.375 12.1394Z" fill="white"/>
</g>
<defs>
<clipPath id="clip0_3466_1305">
<rect width="144.377" height="26" fill="white"/>
</clipPath>
</defs>
</svg>
